<svg width="22" height="22" viewBox="0 0 22 22" xmlns="http://www.w3.org/2000/svg">
    <g fill="none" fill-rule="evenodd" stroke-linecap="round">
        <path d="M2.531 21c.753-1.509 1.129-3.018 1.129-4.526 0-1.51-.376-2.987-1.129-4.434M19.602 21c-.753-1.509-1.129-3.018-1.129-4.526 0-1.51.376-2.987 1.129-4.434" stroke="#FFD100"/>
        <path d="M1.378 19.85C.043 16.48 2.5 10.586 4.792 9.145c.779-.49 2.93-.673 6.45-.546 3.358.011 5.462.277 6.311.795 2.602 1.59 4.52 9.032 2.778 11.074-1.742 2.042-5.465-2.431-6.003-2.697-.539-.266-6.377-.425-6.964-.111-.588.313-4.651 5.561-5.986 2.19z" stroke="#00C0F5"/>
        <g stroke="#FFD100">
            <path d="M7.076 11.51v3.24M5.447 13.13h3.257"/>
        </g>
        <path stroke="#00C0F5" d="M14.891 11.509v.649M14.891 14.426v.649M16.194 13.26h.65M12.937 13.26h.651M9.355 6.56c.534-.438 1.068-.657 1.601-.657.534 0 1.068.219 1.601.657M7.582 4.855c1.124-.919 2.248-1.378 3.373-1.378 1.124 0 2.248.46 3.373 1.378M5.832 3.088C7.529 1.696 9.226 1 10.922 1c1.698 0 3.395.696 5.092 2.088"/>
    </g>
</svg>
