<svg width="24" height="24" viewBox="0 0 24 24" xmlns="http://www.w3.org/2000/svg">
    <g transform="rotate(45 7.023 20.505)" fill="none" fill-rule="evenodd" stroke-linecap="round">
        <path stroke="#00C0F5" d="M3.057 19.612v-.562h2.87v.562"/>
        <path d="M3.62 9.63c-.921.284-2.136.926-2.544 1.886-.618 1.455.412 2.371.27 3.633-.074.651-1.798 2.263-1.232 4C.68 20.885 2.044 22 4.492 22c2.449 0 3.937-1.194 4.422-2.95.485-1.755-1.244-3.154-1.298-3.837-.119-1.49.885-2.415.339-3.697-.412-.967-1.641-1.612-2.58-1.893" stroke="#00C0F5"/>
        <ellipse stroke="#FFD100" cx="4.499" cy="13.518" rx="1.599" ry="1.577"/>
        <path d="m3.609 12.205.17-9.491m1.472.03.174 9.486" stroke="#FFD100"/>
        <path d="M3.356 0h2.285v2.245a.459.459 0 0 1-.458.459H3.815a.459.459 0 0 1-.459-.459V0h0z" stroke="#00C0F5"/>
    </g>
</svg>
