<svg width="22" height="19" viewBox="0 0 22 19" xmlns="http://www.w3.org/2000/svg">
    <g fill="none" fill-rule="evenodd">
        <path d="M4.638 13.643h5.73c.351 0 .636.285.636.637V18H4.001v-3.72c0-.352.285-.637.637-.637zM15.637 13.955h1.91c.351 0 .636.285.636.636V18H15v-3.409c0-.351.285-.636.637-.636z" stroke="#FFD100"/>
        <path stroke="#00C0F5" stroke-width=".923" d="M13.105 11.776V18H2.092v-6.224"/>
        <path stroke="#00C0F5" stroke-width=".923" d="M9.094 9.212V4.308L14.505 1l5.412 3.308V18h-7.032"/>
        <path stroke="#00C0F5" stroke-linecap="round" d="m1 12.315 6.54-3.978 6.557 3.947"/>
        <path stroke="#FFD100" d="M4.32 16.444h6.366M4.32 15.199h6.366"/>
        <path stroke="#00C0F5" stroke-linecap="round" d="M7.906 4.974 14.506 1 21 4.974"/>
    </g>
</svg>
