<svg width="22" height="18" viewBox="0 0 22 18" xmlns="http://www.w3.org/2000/svg">
    <g transform="translate(1 1)" fill="none" fill-rule="evenodd">
        <circle stroke="#00C0F5" stroke-linecap="round" cx="6" cy="10" r="6"/>
        <path stroke="#00C0F5" stroke-linecap="round" d="M4.579 12.306 3.3 14.513H2.11M7.422 12.21l1.235 2.303-.617 1.141M8.541 9.967 11.32 10l.593.784M7.422 7.542l1.235-2.238h1.074M4.667 7.542 3.3 5.304l.447-.814M3.345 9.956.697 9.925l-.57-.876"/>
        <path d="M10 .358c1.886 2.64 3.23 4.98 4.034 7.022.804 2.041 1.389 4.6 1.753 7.675M14.93.731c.088 2.09.536 4.052 1.344 5.885.835 1.895 1.863 3.319 3.084 4.272" stroke="#FFD100" stroke-linecap="round"/>
        <path d="M13.405 9.781c1.29-.618 2.282-1.21 2.977-1.777.694-.566 1.687-1.592 2.976-3.078" stroke="#FFD100" stroke-linecap="round"/>
        <path stroke="#00C0F5" stroke-linecap="round" d="M8.657 14.513h1.269M3.3 14.436l.455 1.103M11.32 10l.593-.929M8.718 5.304l-.644-.919M10.938 15.93a8 8 0 1 0-4.29-13.876M3.345 5.304c-.694.088-1.073.132-1.138.132M.712 9.956l-.585 1.092"/>
        <path d="m3.4 10.148 1.07 1.958c.067.123.196.2.337.2l2.358.001a.385.385 0 0 0 .338-.202l1.058-1.959a.385.385 0 0 0 .002-.36L7.503 7.75a.385.385 0 0 0-.342-.207h-2.35a.385.385 0 0 0-.34.205L3.396 9.784c-.06.114-.059.251.003.364z" stroke="#FFD100" stroke-linecap="square"/>
    </g>
</svg>
